<svg xmlns="http://www.w3.org/2000/svg" viewBox="0 0 200 221">
  <g fill="none" fill-rule="evenodd">
    <path fill="#989AAE" d="M105 69h1v12h-1V69zm20 1h1v11h-1V70zm20 1h1v10h-1V71zm20 0h1v10h-1V71zm-50-3h1v13h-1V68zm20 1h1v12h-1V69zm20 5h1v7h-1v-7zm20-5h1v12h-1V69zm-65 3h1v9h-1v-9zm20 0h1v9h-1v-9zm20-6h1v15h-1V66zm20 1h1v14h-1V67zm-50-2h1v16h-1V65zm20 3h1v13h-1V68zm20 0h1v13h-1V68zm20 8h1v5h-1v-5zm5-4h1v9h-1v-9zm5 0h1v9h-1v-9zM179 7h1v12h-1V7zm5 7h1v5h-1v-5zm5-4h1v9h-1v-9zM105 35h85v1h-85v-1zm0 5h85v1h-85v-1zm0 5h85v1h-85v-1zm0 5h85v1h-85v-1zm0 5h85v1h-85v-1zm0 5h85v1h-85v-1zM16 165h79v1H16v-1zm0 20h79v1H16v-1zm0-30h79v1H16v-1zm0 20h79v1H16v-1zm0-30h79v1H16v-1zm0 25h79v1H16v-1zm0-30h79v1H16v-1zm0 50h79v1H16v-1zm0-30h79v1H16v-1zm0 20h79v1H16v-1zm0-30h79v1H16v-1zM16 40h56v1H16v-1zm0 5h56v1H16v-1zm0 5h56v1H16v-1zm0 5h56v1H16v-1z"/>
    <ellipse cx="14" cy="13" stroke="#989AAE" rx="4" ry="4"/>
    <ellipse cx="26" cy="13" stroke="#989AAE" rx="4" ry="4"/>
    <ellipse cx="38" cy="13" stroke="#989AAE" rx="4" ry="4"/>
    <path stroke="#989AAE" d="M.5.5h199v25H.5V.5zM.5 25.5h199v195H.5z"/>
    <path stroke="#989AAE" d="M10.5 35.5h90v25h-90z"/>
    <path stroke="#989AAE" d="M76.5 40.5h18v15h-18zM10.5 135.5h90v55h-90zM10.5 199.5h179v11h-179zM10.5 75.5h42v5h-42v-5zM10.5 65.5h42v5h-42v-5zM58.5 75.5h42v5h-42v-5zM58.5 65.5h42v5h-42v-5z"/>
    <g stroke="#989AAE">
      <path d="M105.5 135.5h85v55h-85z"/>
      <path d="M105.6 176.7l16.7-24 9 13.3 17.2-22 16.2 14 12.5-5.2 13 10.3"/>
      <path d="M190.3 181.7l-16.7-24-9 13.3-17.2-22-16.2 14-12.6-5.2-13 10.3"/>
    </g>
    <path stroke="#989AAE" d="M105.5 90.5h85v35h-85z"/>
    <path fill="#989AAE" d="M110.7 95h74.6v1h-74.6v-1zm0 5h74.6v1h-74.6v-1zm0 5h74.6v1h-74.6v-1zm0 10h74.6v1h-74.6v-1zm0-5h74.6v1h-74.6v-1zm0 10h74.6v1h-74.6v-1z"/>
    <g stroke="#989AAE">
      <path d="M10.5 90.5h90v35h-90z"/>
      <path d="M10.5 110.5h25v15h-25zM35.5 100.5h25v25h-25zM60.5 90.5h18v35h-18zM78.5 105.5h22v20h-22z"/>
    </g>
  </g>
</svg>