<svg xmlns="http://www.w3.org/2000/svg" viewBox="0 0 200 221">
  <g fill="none" fill-rule="evenodd">
    <path fill="#989AAE" d="M15 44h1v12h-1M35 45h1v11h-1zM55 46h1v10h-1zM75 46h1v10h-1zM25 43h1v13h-1zM45 44h1v12h-1M65 49h1v7h-1zM85 44h1v12h-1M179 7h1v12h-1M20 47h1v9h-1zM40 47h1v9h-1zM60 41h1v15h-1zM80 42h1v14h-1zM30 40h1v16h-1zM50 43h1v13h-1zM70 43h1v13h-1zM90 51h1v5h-1zM184 14h1v5h-1zM95 47h1v9h-1zM189 10h1v9h-1zM105 35h85v1h-85zM10 65h180v1H10zM10 165h180v1H10zM10 185h180v1H10zM10 175h180v1H10zM105 40h85v1h-85zM10 70h180v1H10zM10 170h180v1H10zM10 190h180v1H10zM15 203h99v1H15zM10 180h180v1H10zM105 45h85v1h-85zM50 75h140v1H50zM10 95h122.7v1H10z"/>
    <ellipse cx="179.5" cy="95.5" stroke="#989AAE" rx="10.5" ry="10.5"/>
    <path fill="#989AAE" d="M0 115h200v1H0M105 50h85v1h-85zM50 80h140v1H50zM10 100h122.7v1H10zM105 55h85v1h-85zM50 85h82.7v1H50zM179 85h1v11h-1z"/>
    <g transform="translate(141 85)">
      <ellipse cx="10.5" cy="10.5" stroke="#989AAE" rx="10.5" ry="10.5"/>
      <path fill="#989AAE" d="M10 0h1v10h-1zM21 10v1H10v-1z"/>
    </g>
    <path fill="#989AAE" d="M187.5 102.8l-.7.7-7.7-7.8.8-.7zM10 105h122.7v1H10zM10 125h180v1H10zM105 60h85v1h-85zM50 90h82.7v1H50zM10 130h180v1H10z"/>
    <ellipse cx="14" cy="13" stroke="#989AAE" rx="4" ry="4"/>
    <ellipse cx="26" cy="13" stroke="#989AAE" rx="4" ry="4"/>
    <ellipse cx="38" cy="13" stroke="#989AAE" rx="4" ry="4"/>
    <path stroke="#989AAE" d="M.5.5h199v25H.5V.5zM.5 25.5h199v195H.5z"/>
    <path stroke="#989AAE" d="M10.5 35.5h90v25h-90zM10.5 195.5h109v15h-109zM124.5 195.5h65v15h-65zM10.5 75.5h35v15h-35zM10.5 135.5h179v25h-179z"/>
    <path stroke="#989AAE" d="M15 153.6l12.7-4.5 11 4.6L52 143.4l20.4 9 14-10.5 5.6 7 12.5-9 10.2 9 15.6-4.2 15-3.7 16 11.5 10.4-10.8 5 9.6h8.7"/>
  </g>
</svg>